<?xml version="1.0" encoding="UTF-8" standalone="no"?>
<svg
   xmlns:dc="http://purl.org/dc/elements/1.1/"
   xmlns:cc="http://creativecommons.org/ns#"
   xmlns:rdf="http://www.w3.org/1999/02/22-rdf-syntax-ns#"
   xmlns:svg="http://www.w3.org/2000/svg"
   xmlns="http://www.w3.org/2000/svg"
   xmlns:sodipodi="http://sodipodi.sourceforge.net/DTD/sodipodi-0.dtd"
   xmlns:inkscape="http://www.inkscape.org/namespaces/inkscape"
   version="1.0"
   width="448"
   height="512"
   viewBox="0 0 335.99999 383.99999"
   preserveAspectRatio="xMidYMid meet"
   id="svg6"
   sodipodi:docname="gettr-square.svg"
   inkscape:version="1.0.1 (3bc2e813f5, 2020-09-07)"
   inkscape:label="parler-square">
  <metadata
     id="metadata12">
    <rdf:RDF>
      <cc:Work
         rdf:about="">
        <dc:format>image/svg+xml</dc:format>
        <dc:type
           rdf:resource="http://purl.org/dc/dcmitype/StillImage" />
        <dc:title />
      </cc:Work>
    </rdf:RDF>
  </metadata>
  <defs
     id="defs10" />
  <sodipodi:namedview
     pagecolor="#ffffff"
     bordercolor="#666666"
     borderopacity="1"
     objecttolerance="10"
     gridtolerance="10"
     guidetolerance="10"
     inkscape:pageopacity="0"
     inkscape:pageshadow="2"
     inkscape:window-width="1920"
     inkscape:window-height="1016"
     id="namedview8"
     showgrid="false"
     units="px"
     inkscape:zoom="0.97779608"
     inkscape:cx="17.001382"
     inkscape:cy="291.14786"
     inkscape:window-x="0"
     inkscape:window-y="28"
     inkscape:window-maximized="1"
     inkscape:current-layer="svg6"
     showguides="true"
     inkscape:guide-bbox="true"
     inkscape:document-rotation="0" />
  <path
     id="path2-3-7"
     style="stroke-width:1;"
     inkscape:label="gettr-square"
     d="M 48 32 A 48.000001 48.000001 0 0 0 0 80 L 0 432 A 48.000001 48.000001 0 0 0 48 480 L 98.167969 480 L 185.25 480 L 197.71289 480 L 194.25391 447.31055 L 193.0957 436.61523 L 192.5918 432.11133 L 192.5918 430.4043 L 192.5918 428.56836 C 188.90078 427.77465 185.39663 426.29045 182.29102 424.17188 L 181.39453 414.63672 L 180.98047 410.10938 C 180.50726 409.98843 179.98409 409.88608 179.55859 409.73828 C 178.20482 409.40303 176.8817 408.94736 175.59961 408.4043 L 174.76953 408.09766 L 174.00195 407.72656 L 173.67383 407.72656 L 173.28125 407.72656 L 172.97461 407.72656 C 171.18529 395.72403 167.2919 370.70018 166.58984 365.73633 C 166.43646 364.90101 166.44133 364.04817 166.63281 363.2207 C 166.8254 362.39209 167.19784 361.61133 167.70508 360.92383 C 168.21233 360.23587 168.84464 359.65431 169.58594 359.21875 C 170.32719 358.78315 171.15818 358.50099 172.01367 358.38672 L 172.01367 358.21289 L 172.01367 358.21094 C 172.87251 358.09674 173.73695 358.15521 174.57227 358.38477 C 175.40763 358.61442 176.19281 359.00967 176.86914 359.54492 C 177.54411 360.07903 178.10248 360.73665 178.50781 361.49023 C 178.91317 362.24383 179.16327 363.06808 179.23047 363.91797 C 180.03914 370.03401 182.82864 402.06567 183.09961 409.42969 C 183.60484 409.45991 184.084 409.69494 184.58789 409.60547 L 185.87891 409.91016 L 187.08008 409.91016 L 188.24023 409.91016 L 188.80859 409.91016 L 190.73242 410.2832 L 191.36719 410.2832 L 193.29102 410.2832 L 193.86133 410.2832 L 195.19531 410.2832 L 195.82812 410.2832 L 196.72461 410.2832 L 196.9668 410.2832 C 196.37734 399.1209 194.75781 372.51989 194.75781 367.30859 L 194.75781 366.23633 L 194.75781 365.73438 L 194.75781 365.36133 L 194.75781 364.85938 L 194.75781 364.55273 L 194.75781 364.22461 L 194.75781 363.85352 C 196.24933 362.33996 198.24274 361.41664 200.37695 361.22852 C 201.65458 361.22852 207.71213 361.53538 208.03125 367.50586 L 208.03125 372.0332 L 208.03125 376.23242 L 208.03125 377.56641 L 208.03125 381.13086 L 208.03125 381.96094 L 208.03125 386.5332 L 208.03125 398.53906 L 208.03125 403.875 L 208.03125 408.59961 L 208.03125 410.2832 L 219.29492 410.2832 L 219.29492 401.82031 L 219.29492 392.39258 L 219.29492 374.65625 L 219.29492 368.38086 C 219.25012 366.72922 219.8531 365.12393 221.00195 363.91797 L 221.5918 363.41602 L 221.89648 363.41602 L 222.79297 362.84766 C 223.90709 362.38632 225.10625 362.13712 226.31445 362.10352 C 227.52264 362.14608 228.71955 362.3919 229.83594 362.84766 L 230.77734 363.41602 L 231.10547 363.41602 L 231.67383 363.91797 L 231.87109 363.78711 C 233.02095 364.99307 233.64246 366.59839 233.59766 368.25 L 233.59766 388.23828 L 233.59766 410.2832 L 243.17773 410.2832 C 243.56899 400.12276 244.57991 373.07771 245.14648 367.50586 C 245.27975 366.6067 245.59081 365.72885 246.06445 364.94727 C 246.53811 364.16683 247.18062 363.5001 247.92188 362.95703 C 248.66428 362.41383 249.49761 362.01856 250.39453 361.79688 C 251.29145 361.57634 252.23558 361.53156 253.15039 361.66602 C 254.17272 361.85412 260.10958 363.54531 259.53516 368.94922 C 259.00653 373.92166 256.59005 398.2727 255.40234 410.2832 L 255.75195 410.2832 L 256.51758 410.2832 L 257.17383 410.2832 L 258.50781 410.2832 L 259.14062 410.2832 L 261.13086 410.2832 L 261.70117 410.2832 L 263.55859 409.91211 L 264.19336 409.91211 L 265.33008 409.91211 L 266.49023 409.91211 L 268.30469 409.51758 C 269.02267 400.94559 271.70441 369.54344 272.50391 363.91797 C 272.5946 363.05352 272.85431 362.22458 273.29102 361.46875 C 273.7266 360.71291 274.33222 360.04298 275.04102 359.52344 C 275.74982 359.00386 276.54124 358.64713 277.40234 358.45117 C 278.26341 358.25397 279.15842 358.22351 280.02734 358.38477 L 279.85156 358.58203 C 280.70818 358.69624 281.51653 358.97654 282.25781 359.41211 C 282.99911 359.84771 283.65293 360.42967 284.16016 361.11719 C 284.6663 361.80471 285.0175 362.58545 285.20898 363.41406 C 285.40165 364.24156 285.43188 365.09323 285.27734 365.92969 C 284.7018 370.89351 280.80649 395.89704 278.89062 407.89844 L 277.60156 408.33594 L 277.22852 408.33594 L 276.5293 408.73047 L 275.76367 409.03516 C 274.47819 409.56793 273.13474 410.00278 271.7832 410.34766 C 271.65106 410.39246 271.50039 410.41418 271.36719 410.45898 L 270.14258 424.17188 C 266.9569 426.31954 263.37732 427.83331 259.60156 428.63281 C 259.25667 428.72233 258.89985 428.7621 258.55273 428.85156 L 253.21289 480 L 262.75 480 L 351.27539 480 L 400 480 A 48.000001 48.000001 0 0 0 448 432 L 448 80 A 48.000001 48.000001 0 0 0 400 32 L 351.27539 32 L 98.167969 32 L 48 32 z M 380.76172 81.166016 C 365.23896 126.84717 350.99698 128.77771 346.97266 139.27148 C 355.34051 138.32888 359.74863 134.13326 368.75586 129.67188 C 366.45926 138.00334 363.63449 146.17552 360.31445 154.16602 C 355.20059 162.76679 349.20387 170.84149 342.42383 178.24414 C 343.55477 178.72113 344.78224 178.9668 346.01172 178.9668 C 347.2412 178.9668 348.46671 178.72113 349.59766 178.24414 C 352.81691 176.99898 355.68962 175.03281 358.01758 172.51562 C 358.01758 183.82616 345.875 213.43116 316.61719 226.25 C 278.28944 243.15367 229.43062 234.15096 224.89453 269.5293 L 224.63281 269.66016 C 193.52294 205.0005 194.4237 151.52007 304.87305 113.88086 C 320.65102 108.2256 348.24754 104.72857 380.76172 81.166016 z M 97.392578 291.02734 L 351.39062 291.02734 L 351.39062 306.73047 C 309.93208 309.93519 287.32195 329.17059 283.68164 348.02148 L 283.68164 351.41211 L 283.68164 352.04492 L 283.35352 352.04492 L 283.04688 352.04492 L 282.6543 352.04492 L 282.28125 352.04492 L 281.45117 352.04492 L 280.79492 352.04492 L 277.36133 352.91992 L 276.46484 352.91992 L 275.76367 352.91992 L 273.44727 353.35742 L 272.375 353.35742 L 271.78516 353.35742 L 270.1875 353.35742 L 267.58594 353.35742 L 266.95117 353.35742 L 264.83008 353.35742 L 264.13086 353.35742 L 261.96484 353.35742 L 261.19922 353.35742 L 259.66797 353.35742 L 258.94727 353.35742 L 258.11719 353.35742 L 256.58594 353.35742 L 254.92383 353.35742 L 253.32617 353.35742 L 198.65234 353.35742 L 197.05469 353.35742 L 195.39258 353.35742 L 193.86328 353.35742 L 193.03125 353.35742 L 192.33203 353.35742 L 190.86719 353.35742 L 189.70703 353.35742 L 188.81055 353.35742 L 187.91406 353.35742 L 187.14844 353.35742 L 185.11328 353.35742 L 184.48047 353.35742 L 181.85547 353.35742 C 179.49168 352.9812 177.38452 352.68224 175.46875 352.24219 L 174.63867 352.24219 L 171.18359 351.3457 L 170.85547 351.3457 L 170.28711 351.3457 L 166.58984 348.2168 L 166.19531 348.2168 L 165.82422 348.2168 L 165.49609 348.2168 L 165.16797 348.2168 L 165.16797 347.58398 L 165.16797 344.19336 C 161.27126 325.53056 138.91539 306.109 97.392578 302.9043 L 97.392578 291.02734 z "
     transform="scale(0.74999998)" />
</svg>
