<?xml version="1.0" encoding="UTF-8" standalone="no"?>
<svg
   xmlns:dc="http://purl.org/dc/elements/1.1/"
   xmlns:cc="http://creativecommons.org/ns#"
   xmlns:rdf="http://www.w3.org/1999/02/22-rdf-syntax-ns#"
   xmlns:svg="http://www.w3.org/2000/svg"
   xmlns="http://www.w3.org/2000/svg"
   xmlns:sodipodi="http://sodipodi.sourceforge.net/DTD/sodipodi-0.dtd"
   xmlns:inkscape="http://www.inkscape.org/namespaces/inkscape"
   viewBox="0 0 448 512"
   version="1.1"
   id="svg4"
   sodipodi:docname="gettr.svg"
   inkscape:version="1.0.1 (3bc2e813f5, 2020-09-07)"
   inkscape:label="parler">
  <metadata
     id="metadata10">
    <rdf:RDF>
      <cc:Work
         rdf:about="">
        <dc:format>image/svg+xml</dc:format>
        <dc:type
           rdf:resource="http://purl.org/dc/dcmitype/StillImage" />
        <dc:title />
      </cc:Work>
    </rdf:RDF>
  </metadata>
  <defs
     id="defs8" />
  <sodipodi:namedview
     pagecolor="#ffffff"
     bordercolor="#666666"
     borderopacity="1"
     objecttolerance="10"
     gridtolerance="10"
     guidetolerance="10"
     inkscape:pageopacity="0"
     inkscape:pageshadow="2"
     inkscape:window-width="1366"
     inkscape:window-height="732"
     id="namedview6"
     showgrid="false"
     inkscape:zoom="0.32593203"
     inkscape:cx="-350.50758"
     inkscape:cy="231.73691"
     inkscape:window-x="1920"
     inkscape:window-y="768"
     inkscape:window-maximized="1"
     inkscape:current-layer="svg4"
     inkscape:document-rotation="0" />
  <path
     id="rect883"
     style="stroke-width:42.0285;stop-color:#000000"
     d="M 405.80328,9.1176431e-7 C 364.08139,30.236221 328.67225,34.724801 308.42625,41.981521 166.70289,90.278351 165.54597,158.90294 205.46467,241.87113 l 0.3362,-0.16811 c 5.82049,-45.39579 68.5141,-33.84576 117.69443,-55.53574 37.54222,-16.44852 53.12234,-54.43659 53.12234,-68.94973 -2.98712,3.22993 -6.67323,5.75468 -10.80404,7.35241 -1.45117,0.61207 -3.02461,0.9253 -4.60222,0.9253 -1.57761,0 -3.15119,-0.31323 -4.60237,-0.9253 8.69984,-9.49871 16.39335,-19.86078 22.95522,-30.896869 4.26013,-10.25303 7.88532,-20.73953 10.83221,-31.43007 -11.55764,5.72465 -17.21319,11.10994 -27.95042,12.31944 5.16387,-13.46529 23.43828,-15.94406 43.35668,-74.56218008823 z M 42.19672,269.28834 v 15.23787 c 53.2801,4.11214 81.96573,29.03492 86.9658,52.98211 v 4.34979 0.81322 h 0.42099 0.42098 0.47702 0.50576 l 4.74259,4.01285 h 0.7299 0.42098 l 4.43397,1.15088 h 1.06612 c 2.45822,0.56466 5.16113,0.94829 8.19423,1.43106 h 3.36743 0.81323 2.60981 0.98277 1.15088 1.15088 1.48738 1.8802 0.89801 1.0661 1.96439 2.13265 2.0486 70.15636 2.04859 2.13279 1.9644 1.06611 0.9253 1.96439 0.98278 2.7782 0.898 2.72203 0.81322 3.33942 2.04859 0.7572 1.37502 l 2.97461,-0.5618 h 0.898 1.15088 l 4.40582,-1.12214 h 0.84197 1.0661 0.47702 0.50575 0.39225 0.42099 v -0.81323 -4.34963 c 4.67105,-24.18858 33.68412,-48.86998 86.88175,-52.98211 v -20.14887 z m 95.74942,86.20818 v 0.22414 c -1.09772,0.14656 -2.16384,0.50719 -3.11499,1.06612 -0.95117,0.55891 -1.76239,1.30605 -2.41326,2.18882 -0.65087,0.8822 -1.12789,1.88336 -1.37502,2.94659 -0.24569,1.0618 -0.25431,2.15535 -0.0575,3.2272 0.90087,6.36935 5.89822,38.47902 8.19423,53.88011 h 0.39225 0.50575 0.42098 l 0.98278,0.47703 1.0661,0.39225 c 1.64514,0.69684 3.34215,1.28162 5.07925,1.7118 0.54598,0.18966 1.21697,0.32184 1.82416,0.47702 l 0.53305,5.80885 1.15088,12.23538 c 3.98498,2.71843 8.4813,4.62205 13.21744,5.64046 v 2.35736 2.18882 l 0.64513,5.78084 1.48723,13.72262 L 170.94645,512 h 71.16658 l 6.87538,-65.86277 c 0.44541,-0.11494 0.90375,-0.16523 1.34629,-0.28017 4.84489,-1.02588 9.43836,-2.96901 13.52606,-5.7248 l 1.57157,-17.59523 c 0.17099,-0.0575 0.36352,-0.0862 0.53306,-0.14368 1.73422,-0.44253 3.45795,-1.00001 5.10741,-1.68364 l 0.98276,-0.39225 0.89801,-0.50575 h 0.47702 l 1.65563,-0.5618 c 2.45837,-15.39965 7.45571,-47.48274 8.19423,-53.85209 0.19828,-1.07329 0.16092,-2.1654 -0.0862,-3.2272 -0.2457,-1.06324 -0.69685,-2.0644 -1.34629,-2.9466 -0.65087,-0.88219 -1.49025,-1.62991 -2.44141,-2.18882 -0.95117,-0.55892 -1.98767,-0.91956 -3.08683,-1.06611 l 0.22414,-0.25288 c -1.11496,-0.2069 -2.26267,-0.16667 -3.36757,0.0862 -1.10491,0.25144 -2.12116,0.70835 -3.03066,1.37503 -0.90949,0.66667 -1.68608,1.52775 -2.245,2.4976 -0.56035,0.96983 -0.89369,2.03379 -1.01007,3.143 -1.02588,7.21835 -4.46674,47.5112 -5.38802,58.51035 l -2.3292,0.50575 h -1.48738 -1.45921 -0.81323 l -2.38538,0.47703 h -0.7299 -2.55363 -0.81323 -1.71181 -0.84196 -0.98277 -0.44829 c 1.52402,-15.4113 4.6255,-46.65774 5.30381,-53.03815 0.73709,-6.93401 -6.88243,-9.10344 -8.19423,-9.34482 -1.17386,-0.17242 -2.38508,-0.11495 -3.53596,0.1681 -1.15088,0.28449 -2.21843,0.79024 -3.17103,1.48724 -0.95116,0.69685 -1.77761,1.55232 -2.38538,2.55377 -0.60777,1.00289 -1.0072,2.12949 -1.17818,3.28324 -0.72702,7.14953 -2.02359,41.85292 -2.52561,54.89033 h -12.29142 v -28.28706 -25.64909 c 0.0575,-2.11928 -0.74139,-4.17736 -2.21684,-5.7248 l -0.25288,0.16811 -0.7299,-0.64512 h -0.42098 l -1.20691,-0.7299 c -1.4325,-0.58478 -2.96787,-0.89944 -4.51818,-0.95404 -1.5503,0.0431 -3.08841,0.36207 -4.51802,0.95404 l -1.15088,0.7299 h -0.39225 l -0.75719,0.64512 c -1.47416,1.54744 -2.2463,3.60551 -2.18883,5.7248 v 8.054 22.75867 12.09501 10.86022 h -14.45223 v -2.16082 -6.06158 -6.84723 -15.4064 -5.86503 -1.06611 -4.5742 -1.71181 -5.38802 -5.80898 c -0.40949,-7.66104 -8.18259,-8.05387 -9.82198,-8.05387 -2.73855,0.24139 -5.29821,1.42532 -7.21204,3.36744 v 0.47702 0.42098 0.39225 0.64513 0.47701 0.64513 1.37502 c 0,6.68688 2.07806,40.82 2.83439,55.14291 h -0.30891 -1.15088 -0.81324 -1.7118 -0.7299 -2.46958 -0.81322 l -2.46944,-0.47702 h -0.7299 -1.48737 -1.54342 l -1.65562,-0.39224 c -0.64657,0.11494 -1.26008,-0.18535 -1.90836,-0.22414 -0.34771,-9.44914 -3.92937,-50.55032 -4.96703,-58.39814 -0.0862,-1.09053 -0.40519,-2.14802 -0.92531,-3.11499 -0.52012,-0.96697 -1.23852,-1.81224 -2.10462,-2.49759 -0.86784,-0.6868 -1.87474,-1.19255 -2.9466,-1.48724 -1.07185,-0.29454 -2.18136,-0.37069 -3.28338,-0.22414 z"
     inkscape:label="gettr" />
  <!-- Font Awesome Free 5.15.2 by @fontawesome - https://fontawesome.com License - https://fontawesome.com/license/free (Icons: CC BY 4.0, Fonts: SIL OFL 1.1, Code: MIT License) -->
</svg>
