<?xml version="1.0" encoding="UTF-8" standalone="no"?>
<svg
   xmlns:dc="http://purl.org/dc/elements/1.1/"
   xmlns:cc="http://creativecommons.org/ns#"
   xmlns:rdf="http://www.w3.org/1999/02/22-rdf-syntax-ns#"
   xmlns:svg="http://www.w3.org/2000/svg"
   xmlns="http://www.w3.org/2000/svg"
   xmlns:sodipodi="http://sodipodi.sourceforge.net/DTD/sodipodi-0.dtd"
   xmlns:inkscape="http://www.inkscape.org/namespaces/inkscape"
   width="512"
   height="512"
   viewBox="0 0 135.46666 135.46667"
   version="1.1"
   id="svg8"
   inkscape:version="1.0.1 (3bc2e813f5, 2020-09-07)"
   sodipodi:docname="cabecalivre-transparente.svg"
   inkscape:export-filename="cabecalivre.png"
   inkscape:export-xdpi="96"
   inkscape:export-ydpi="96">
  <defs
     id="defs2" />
  <sodipodi:namedview
     id="base"
     pagecolor="#ffffff"
     bordercolor="#666666"
     borderopacity="1.0"
     inkscape:pageopacity="0.0"
     inkscape:pageshadow="2"
     inkscape:zoom="0.49497475"
     inkscape:cx="316.94478"
     inkscape:cy="266.62664"
     inkscape:document-units="mm"
     inkscape:current-layer="layer1"
     inkscape:document-rotation="0"
     showgrid="false"
     inkscape:window-width="1920"
     inkscape:window-height="1016"
     inkscape:window-x="0"
     inkscape:window-y="28"
     inkscape:window-maximized="1"
     showguides="true"
     inkscape:guide-bbox="true"
     units="px" />
  <metadata
     id="metadata5">
    <rdf:RDF>
      <cc:Work
         rdf:about="">
        <dc:format>image/svg+xml</dc:format>
        <dc:type
           rdf:resource="http://purl.org/dc/dcmitype/StillImage" />
        <dc:title />
      </cc:Work>
    </rdf:RDF>
  </metadata>
  <g
     inkscape:label="Layer 1"
     inkscape:groupmode="layer"
     id="layer1">
    <g
       id="g1033">
      <circle
         style="fill:#000000;stroke-width:0.217523;stop-color:#000000"
         id="path53"
         cx="67.73333"
         cy="67.73333"
         r="67.73333" />
      <path
         id="path12"
         style="fill:#ffff00;fill-opacity:1;stroke-width:0.0100066"
         d="M 91.357058,59.356004 H 18.863334 c -0.499312,2.780201 -0.765148,5.728783 -0.765148,8.85022 0,5.09639 0.562243,8.700827 2.073248,13.273869 1.550031,4.670105 3.526455,8.293415 8.642859,15.831428 1.14376,1.686123 2.209378,3.429269 2.363481,3.894579 0.833554,2.32555 0.8716,8.25452 0.116097,13.21582 -0.194129,1.3369 -0.290223,2.48058 -0.232184,2.53861 0.07805,0.0771 7.906239,2.96513 17.420566,6.41442 16.276825,5.92994 17.284615,6.27808 17.38168,5.89083 0.252167,-0.98866 0.697333,-5.09649 0.697333,-6.37534 0.02002,-2.90693 0.891644,-5.44559 2.441664,-7.13071 1.104735,-1.16277 2.054397,-1.74411 3.759531,-2.28648 1.860237,-0.58139 3.352279,-0.77542 8.003373,-0.98855 6.142085,-0.29019 8.52559,-0.79455 9.901505,-2.0924 0.755502,-0.71748 0.891683,-1.18191 0.988748,-3.2553 0.116076,-2.18945 0.446136,-3.21605 1.607909,-5.11532 1.123738,-1.80219 1.220972,-2.751836 0.368405,-3.643428 l -0.542351,-0.562294 0.465149,-0.136222 c 0.542361,-0.13609 0.968785,-0.949661 0.794669,-1.55006 -0.05804,-0.213132 -0.329219,-0.968544 -0.600399,-1.646985 -1.123748,-2.867908 -0.368295,-4.766311 2.170393,-5.464775 2.093393,-0.581387 2.867978,-1.433933 2.848965,-3.178083 -0.02002,-1.414942 -0.46531,-2.383476 -3.527346,-7.459852 -1.511004,-2.499662 -3.100202,-5.290518 -3.546499,-6.162098 -0.736499,-1.47298 -0.794438,-1.783246 -0.871479,-3.391326 -0.05804,-1.239815 0.03892,-2.228462 0.27108,-3.236132 0.459636,-1.978083 0.544222,-4.446691 0.262475,-6.234421 z" />
      <path
         id="path938"
         style="fill:#ffff00;fill-opacity:1;stroke-width:0.0100066"
         d="m 34.166916,16.86074 c -1.281041,0.7891 -2.514307,1.637194 -3.683123,2.537465 -3.788884,2.897636 -7.311558,6.814654 -9.764375,10.799413 -5.376436,8.755804 -5.965873,18.793024 -1.856084,29.158386 L 80.46884,21.144723 C 80.353921,21.011427 80.238843,20.876225 80.125407,20.758628 77.088484,17.626051 72.219386,14.261761 68.56438,12.743056 63.227862,10.535198 58.141693,9.8358379 52.152235,10.472802 46.166237,11.128876 39.718079,13.441291 34.166916,16.86074 Z" />
      <path
         d="m 92.559658,16.563777 c -0.691841,-0.180481 -0.541442,-1.112967 -1.233283,-1.32353 0,0.601606 0,1.203213 0.18048,1.774726 0.150399,0.210563 -0.210562,0.391044 -0.391043,0.270727 -0.541443,-0.451208 -0.99265,-1.052803 -1.564175,-1.473929 0,0.360962 -0.06014,0.752006 0.15041,1.082885 0.240634,0.33088 0.180481,0.81217 0.451197,1.143049 -0.240645,-0.03013 -0.481279,-0.09027 -0.721924,-0.120328 -0.330879,0.631689 -0.09027,1.32353 0,1.985289 -0.932486,-0.120317 -0.330879,1.263366 0.120317,2.045453 l -0.451196,0.270727 c 0.150399,0.661759 0.150399,1.383683 0.601606,1.925125 -0.120328,0.09027 -0.210563,0.210563 -0.330891,0.300798 -0.03013,0.691841 0.330891,1.293448 0.631689,1.895054 -0.661759,0.661759 -0.03013,1.68448 0.571524,2.135688 0,0.270715 -0.06014,0.541442 -0.03013,0.782087 0.150399,0.391033 0.481278,0.66176 0.752005,0.992639 0.09027,0.300798 -0.150399,0.661759 0.03013,0.962568 0.300797,0.511361 0.782076,0.872322 1.383682,0.962557 0.06014,0.421126 -0.210563,0.81217 -0.180481,1.233295 0.210563,0.360962 0.481279,0.691841 0.66176,1.052803 0.18048,-0.03013 0.360961,-0.09027 0.541442,-0.120328 0.240645,0.330891 0.06014,0.721923 -0.180481,1.022732 0.631689,0.360962 0.601607,1.233284 1.29345,1.504 0.1504,0.782087 -0.180483,0.691852 0.81217,1.112966 0.0301,0.48129 0.39103,0.81217 0.87232,0.872323 0.1504,0.391043 0.48128,0.691852 0.90241,0.691852 0.48128,0.691841 0.72192,0.511361 1.41376,0.391033 -0.12032,0.481289 -0.57152,0.902404 -1.11297,0.782087 0.21057,0.210563 -0.15039,0.360962 -0.30079,0.481278 -1.02274,0.120328 -1.74466,1.022733 -2.737301,1.263366 -0.481278,0.06014 -0.752005,0.511372 -1.203201,0.631689 -0.691853,0.18048 -1.233296,0.721923 -1.774738,1.112967 -0.481278,0.360961 -0.451196,1.052802 -0.391032,1.624327 0.812158,1.925125 0.421114,3.85025 5.775392,5.474577 1.38368,0.451208 1.77472,-2.316168 2.82753,-4.181129 0.360964,-0.81217 1.022724,-1.443847 1.473924,-2.225934 0.21056,-0.240645 0.45119,-0.782088 0.84224,-0.541443 0.36096,0.33088 0.51136,0.782088 0.752,1.17312 0.27072,0.180481 0.54144,0.360962 0.63168,0.691853 0.42112,0.120316 0.81217,0.360961 1.23329,0.391032 0.0301,0.180481 0.0301,0.391044 0.0601,0.601607 0.30081,-0.06014 0.60161,-0.180481 0.90241,-0.300798 0.0601,0.180481 0.1504,0.33088 0.21056,0.51136 0.60161,-0.330879 1.35361,-0.330879 1.98529,-0.120316 0.24064,0.150398 0.39104,0.360961 0.57152,0.571513 1.41377,-0.721924 1.74465,0.270727 2.31617,-0.360962 0.24065,0.15041 0.48128,0.360962 0.78209,0.330891 0.36096,0.06014 0.51136,-0.330891 0.66176,-0.571524 1.02272,0.09027 2.01537,-0.180481 3.03809,-0.06014 0.33088,0 0.57153,-0.270727 0.69184,-0.571524 0.39105,0.06014 0.72193,0.210563 1.08289,0.300797 0.27072,-0.09027 0.51137,-0.18048 0.752,-0.300797 -0.0301,-0.180481 -0.0903,-0.391044 -0.1504,-0.571525 0.60161,-0.06014 1.14305,0.120317 1.74465,0.150399 0.36096,-0.180481 0.0903,-0.541442 -0.12032,-0.721923 0.0601,-0.09027 0.1504,-0.240634 0.18048,-0.33088 0.45121,0.06014 0.87232,0.360962 1.32353,0.180481 -0.0301,-0.601607 -0.63169,-0.902404 -1.0528,-1.263366 v -0.48128 c 0.54144,0.09027 1.08288,0.180481 1.62433,0.150399 -0.12033,-0.511361 -0.69186,-0.752006 -1.08289,-1.052803 -2.22593,-1.052803 -5.65507,-3.760016 -6.91843,-4.030743 -0.39105,-0.09027 -0.66176,-0.391032 -0.96257,-0.661759 -0.21056,-0.240645 -0.57153,-0.150399 -0.87232,-0.180481 -0.60161,0.03013 -1.02272,-0.51136 -1.62433,-0.481278 -0.39104,0 -0.81216,-0.03013 -1.02272,-0.391044 -0.39105,-0.360961 -0.33088,-0.932486 -0.21056,-1.413764 0.27071,-0.932486 0.15039,-1.985289 0.752,-2.797459 0.54144,-0.691841 0.72192,-1.594245 1.32352,-2.225922 0.0903,-0.120328 0.18048,-0.240645 0.18048,-0.391044 -0.33088,0 -0.69184,0.09027 -1.02272,0.120317 -2.07552,-0.33088 -1.38368,-0.03013 -2.52673,1.022721 -0.39105,0.360961 -0.99264,0.300809 -1.44385,0.631688 -0.48128,0.33088 -1.08288,0.360962 -1.65441,0.240645 -0.3008,-0.180481 -0.45119,-0.541442 -0.752,-0.752005 -1.20321,-0.872322 -1.44385,-2.586896 -1.77473,-2.947857 -0.48128,-0.571525 -1.05279,-1.112967 -1.32351,-1.804809 -0.48129,-0.300797 -2.286104,-2.286086 -2.526734,-2.586895 0.0301,-0.06014 0.12032,-0.180481 0.18048,-0.240634 -0.21056,-0.06014 -0.39104,-0.150399 -0.60161,-0.210563 -0.0301,-0.18048 -0.0601,-0.360961 -0.0903,-0.51136 -0.51136,-0.03013 -1.02273,-0.51136 -0.87233,-1.052803 -0.21056,-0.09027 -0.45119,-0.15041 -0.69184,-0.240645 v -0.481278 c -0.36096,-0.15041 -0.21056,0.120317 -1.504012,-1.293448 0.06014,-0.06014 0.210563,-0.150399 0.270727,-0.210563 -0.872322,-0.03013 -1.203202,-0.99265 -1.654409,-1.624327 -0.120317,-0.511361 -0.691842,-0.99265 -0.481279,-1.624328 z"
         id="path4"
         style="fill:#ffffff;stroke-width:0.300801" />
      <path
         d="m 77.263893,29.592673 c -3.358166,-0.761932 -11.259739,5.390005 -11.795908,6.659895 0.338639,0.02826 0.649055,-0.112876 0.931251,-0.282196 -0.16932,0.53618 -0.620834,0.931251 -1.015916,1.298111 v 0.36686 c 0.73372,-0.451514 1.636749,-0.36686 2.398691,-0.790153 0.761932,-0.395081 1.63675,-0.507957 2.483346,-0.73372 1.580317,-0.310417 1.185235,1.128792 2.73733,2.116486 0.282195,0.141108 0.197541,0.564401 -0.05642,0.705498 -2.37047,2.624454 -6.659884,2.172929 -4.93847,4.37408 -0.169319,0.479747 -0.141108,1.015915 -0.112886,1.523873 0.931261,0.677277 0.73372,0.338639 1.298121,1.552095 0.705488,0.05642 1.439209,0.05642 2.144707,0 0.253974,0.677277 1.26989,2.00361 2.342249,-0.05642 0.36686,-0.564401 0.310416,-1.354554 0.931261,-1.749636 0,-0.451514 0.19753,-0.874818 0.620834,-1.044137 0.02826,-0.141098 0.05642,-0.282195 0.08469,-0.395082 0.479747,-0.141098 0.677277,-0.620834 1.072359,-0.903029 0.536179,0.02826 0.818377,0.53618 1.269902,0.790153 0.536169,0.310417 1.072348,0.846596 1.015915,1.523874 -0.253984,1.072358 0.310417,2.172928 0.08469,3.245287 0.08469,0.507958 0.141097,0.987694 0.08469,1.495652 0.338639,0.451515 0.282195,0.987694 0.169319,1.495652 0.141098,0.05642 0.282196,0.141097 0.423293,0.225762 -0.112876,0.282196 -0.197541,0.592613 0,0.846597 0.507958,-0.282195 0.987694,-0.592623 1.523874,-0.874818 v 0.846596 c 0.08469,0 0.282195,0 0.36686,-0.02826 3.442828,-4.599842 1.664971,-2.624444 3.188844,-5.192454 0.733721,-2.37047 0.53618,-1.862512 0.931262,-2.201151 -0.197541,-0.253984 0,-0.564401 0.05642,-0.846596 0.73372,-4.374079 1.495651,-4.684496 -1.721415,-6.688117 -0.253973,-0.733709 -0.451514,-1.636749 0.141108,-2.285804 0.282196,-0.310417 0.112876,-0.733721 0.282196,-1.072359 0.169319,-0.310417 0.338638,-0.620834 0.451514,-0.959473 0.08469,-0.02826 0.225763,-0.08469 0.310417,-0.112876 0.169319,-0.705498 0.818385,-1.185234 1.410998,-1.523873 0,-0.08469 0.02826,-0.253984 0.02826,-0.338639 -0.790153,-0.08469 -1.552095,-0.536179 -2.342248,-0.310427 -0.395082,0.141108 -0.761942,0.36686 -1.157013,0.507958 -0.338639,1.157024 -2.596233,1.63676 -2.878428,1.721414 -0.564401,-0.423293 -1.2699,-0.705499 -1.608538,-1.354554 -0.338639,-0.564391 -0.592613,-1.185235 -1.157014,-1.552095 z"
         id="path36"
         style="fill:#ffffff;stroke-width:0.282198" />
      <path
         d="m 53.377168,41.656263 c -0.200065,-0.07145 -0.371546,0.100038 -0.557313,0.128615 -0.300103,0.114325 -0.314389,-0.04288 -0.771675,0.60019 0.07143,0.400126 0.100002,0.800257 0.185766,1.186092 -0.100002,1.214672 0.171493,0.757382 0.185779,1.500479 -0.01429,0.271516 0.271519,0.457285 0.214351,0.743092 -0.07143,0.342966 0.242935,0.52874 0.443,0.743091 0.228649,0.157192 0.114289,0.485873 0.300092,0.685933 0.114288,0.128615 0.100002,0.314389 0.185778,0.457289 -0.114288,0.185776 -0.114288,0.400127 0,0.600191 -0.100002,0.700224 0.643065,2.043507 0.857416,2.343605 0.05714,0.328674 0.443,1.014607 1.128935,1.586215 -0.02857,0.128616 0.01429,0.328676 -0.157194,0.38584 -0.200065,0.114313 -0.342962,0.314384 -0.557325,0.428708 -0.714519,0.300093 -1.386156,0.728801 -2.129248,0.957449 -0.92887,0.428702 -1.05748,0.442993 -0.757377,1.300408 0.142897,0.242939 0.08572,0.557323 0.300091,0.757389 0.200065,0.185769 0.385832,0.414416 0.671637,0.457285 0.300104,0.04288 0.643065,0.52874 1.500481,-0.171484 3.015248,-3.458244 2.729443,-1.757699 3.615431,-2.043506 0.100002,0.05716 0.185779,0.12861 0.285805,0.200065 0.01429,0.100039 0.01429,0.214351 0.01429,0.328676 2.70087,1.086057 2.129248,-0.05717 3.629728,-0.128616 0.443,-2.672279 -0.628766,-2.929497 -0.957442,-3.186722 -0.08572,-0.128616 0.05714,-0.228648 0.128611,-0.300099 0.886,-0.828833 0.857416,-1.000316 1.957767,-1.243255 -0.200065,-0.20006 -0.457286,-0.27151 -0.728806,-0.300092 -0.04286,-0.100039 -0.07143,-0.214352 -0.142896,-0.285808 -0.171493,-0.07145 -0.35726,-0.128609 -0.543039,-0.1429 -0.328675,0.04288 -0.657351,0.128614 -0.943156,0.300097 -1.157507,0.471576 -1.128935,0.157193 -1.671962,-0.314388 -0.100002,-0.07145 -0.771663,-1.414733 -0.885988,-1.857732 -0.228649,-1.357573 -4.472858,-5.473168 -4.801533,-5.716107 z"
         id="path70"
         style="fill:#ffffff;stroke-width:0.142903" />
    </g>
  </g>
</svg>
