<?xml version="1.0" standalone="no"?>
<!DOCTYPE svg PUBLIC "-//W3C//DTD SVG 20010904//EN"
 "http://www.w3.org/TR/2001/REC-SVG-20010904/DTD/svg10.dtd">
<svg version="1.0" xmlns="http://www.w3.org/2000/svg"
 width="700.000000pt" height="700.000000pt" viewBox="0 0 700.000000 700.000000"
 preserveAspectRatio="xMidYMid meet">
<metadata>
Created by potrace 1.14, written by Peter Selinger 2001-2017
</metadata>
<g transform="translate(0.000000,700.000000) scale(0.100000,-0.100000)"
fill="#000000" stroke="none">
<path d="M3215 6994 c-527 -52 -991 -193 -1418 -433 -575 -321 -1037 -783
-1359 -1358 -213 -382 -345 -781 -415 -1258 -14 -95 -18 -187 -18 -445 0 -348
7 -419 61 -695 198 -995 833 -1864 1731 -2366 381 -214 782 -346 1258 -416
152 -22 706 -25 855 -5 691 95 1270 339 1784 752 639 514 1087 1249 1240 2038
55 283 61 346 61 692 0 346 -6 409 -61 692 -148 762 -575 1482 -1179 1989
-517 433 -1119 699 -1800 795 -114 16 -633 28 -740 18z m-183 -534 c335 -28
605 -136 900 -360 92 -70 208 -176 208 -190 0 -9 -3143 -1960 -3158 -1960 -14
0 -74 186 -100 310 -110 515 11 989 360 1405 205 245 437 426 733 570 268 131
522 204 785 225 139 11 144 11 272 0z m1722 -293 c14 -21 26 -43 26 -50 0 -21
60 -117 80 -129 11 -7 20 -18 20 -24 0 -7 16 -26 35 -43 19 -17 35 -35 35 -40
0 -5 9 -13 20 -16 11 -3 20 -11 20 -18 0 -6 19 -29 43 -50 23 -22 40 -41 37
-43 -3 -2 25 -36 62 -76 98 -108 128 -147 155 -208 30 -70 98 -140 133 -140
14 1 43 9 65 20 22 11 45 19 51 20 6 0 25 16 42 35 30 32 35 34 91 32 l58 -1
-34 -61 c-49 -85 -59 -111 -73 -188 -11 -59 -10 -70 4 -92 10 -15 26 -25 40
-25 13 0 40 -7 59 -15 20 -8 47 -15 60 -15 13 0 32 -9 42 -20 10 -11 23 -20
29 -20 17 0 96 -44 203 -114 54 -34 116 -72 138 -83 22 -12 49 -31 60 -43 l20
-22 -42 7 c-51 8 -57 -8 -18 -45 35 -33 31 -43 -11 -35 -35 6 -36 6 -30 -19 6
-25 5 -26 -43 -26 -39 0 -49 -3 -45 -14 7 -18 -26 -29 -60 -20 -16 4 -32 1
-42 -7 -9 -7 -50 -14 -97 -17 -58 -2 -87 -8 -100 -20 -13 -11 -23 -13 -34 -6
-8 5 -44 7 -79 4 -49 -4 -68 -2 -79 10 -9 8 -35 15 -63 16 -26 0 -51 2 -57 4
-5 1 -20 1 -32 0 -15 -1 -23 4 -23 14 0 9 -8 16 -18 16 -26 0 -60 27 -88 71
-13 21 -32 39 -42 39 -24 0 -113 -136 -157 -242 -48 -113 -61 -125 -118 -109
-65 20 -175 81 -201 112 -28 33 -66 126 -73 181 -8 51 20 74 202 164 146 73
185 98 185 116 0 5 -8 8 -17 5 -19 -4 -76 26 -105 55 -10 10 -22 18 -28 18 -5
0 -10 7 -10 15 0 7 -7 18 -16 23 -8 5 -21 18 -27 28 -7 11 -23 38 -37 59 -14
23 -23 50 -21 67 2 22 -2 28 -18 28 -25 0 -41 28 -41 74 0 29 -5 38 -29 50
-31 16 -41 34 -41 70 0 13 -9 31 -20 41 -11 10 -20 29 -20 42 0 13 -10 37 -21
53 -16 20 -20 36 -15 55 4 17 0 44 -10 71 -12 31 -14 48 -7 55 8 8 6 23 -5 51
-12 31 -13 44 -4 59 9 15 8 26 -5 54 -14 29 -15 40 -5 55 7 11 12 41 12 66 0
41 2 46 20 41 17 -4 19 -1 14 21 -4 15 -11 35 -15 44 -20 38 -7 40 29 5 55
-54 66 -50 57 21 -8 63 -7 63 29 9z m-758 -705 c6 -4 25 -28 42 -54 35 -50 80
-88 107 -88 27 0 124 50 135 69 15 29 65 44 122 38 28 -4 53 -8 55 -11 3 -3
-11 -19 -30 -35 -33 -29 -65 -84 -102 -177 -26 -63 -14 -97 50 -145 76 -57 81
-79 55 -226 -12 -65 -28 -132 -36 -150 -7 -17 -14 -34 -14 -38 0 -23 -81 -181
-124 -242 -53 -76 -66 -86 -66 -53 0 25 -2 25 -42 0 -42 -25 -51 -25 -43 0 3
11 2 20 -3 20 -12 0 -22 81 -28 230 -3 63 -10 125 -16 137 -10 21 -88 83 -105
83 -23 0 -89 -82 -120 -150 -36 -78 -68 -120 -89 -120 -7 0 -24 14 -37 30 -23
27 -32 30 -81 30 -46 0 -56 3 -61 20 -3 11 -18 29 -32 40 -22 17 -25 26 -20
60 3 22 1 43 -4 46 -5 3 -9 16 -9 30 0 22 13 31 103 73 110 52 177 101 177
132 0 10 -4 19 -10 19 -5 0 -28 25 -50 55 -28 38 -47 55 -63 55 -22 0 -93 -19
-214 -58 l-63 -20 25 32 c31 41 31 49 3 41 -36 -9 90 105 190 173 177 121 349
188 398 154z m-1170 -684 c104 -110 148 -168 189 -251 50 -101 64 -110 128
-90 40 14 51 14 72 3 27 -14 33 -30 12 -30 -7 0 -28 -15 -46 -34 l-33 -34 26
-25 c22 -22 26 -35 26 -81 0 -55 -1 -56 -37 -72 -46 -19 -121 -13 -139 10 -6
9 -26 21 -44 26 -41 12 -70 -3 -130 -65 -61 -63 -73 -68 -114 -51 -24 10 -37
24 -46 50 -6 20 -9 40 -5 46 3 5 44 27 90 49 90 42 107 61 82 89 -36 40 -79
136 -87 194 -5 34 -18 73 -28 87 -35 48 -57 196 -33 225 25 30 56 18 117 -46z
m1894 -962 c0 -63 -7 -151 -16 -197 -10 -54 -15 -118 -12 -179 4 -114 12 -131
218 -480 154 -260 179 -311 186 -377 12 -93 -29 -143 -145 -181 -69 -21 -116
-65 -131 -121 -13 -49 -9 -77 27 -181 30 -87 27 -125 -12 -140 -31 -12 -31
-15 0 -52 37 -43 32 -78 -24 -182 -58 -108 -68 -143 -80 -271 -11 -115 -28
-148 -96 -186 -66 -37 -166 -56 -360 -69 -420 -28 -497 -40 -603 -94 -99 -50
-184 -165 -215 -291 -9 -33 -20 -127 -26 -210 -13 -162 -26 -274 -36 -283 -8
-8 -186 52 -650 221 -792 288 -1120 409 -1129 417 -5 5 -2 65 8 142 40 312 31
577 -23 693 -15 33 -82 141 -148 240 -237 358 -331 533 -407 765 -85 259 -113
465 -102 755 5 162 15 267 32 348 l6 27 1869 0 1869 0 0 -114z"/>
</g>
</svg>
